<svg width="16" height="16" viewBox="0 0 16 16" fill="none" xmlns="http://www.w3.org/2000/svg">
<g clip-path="url(#clip0)">
<rect width="16" height="16" fill="#FAF4F4"/>
<path d="M10.5776 9.01562L12.5845 13H14.7891V12.9048L12.4966 8.50293C12.7896 8.37109 13.0532 8.21484 13.2876 8.03418C13.5269 7.85352 13.7319 7.64111 13.9028 7.39697C14.0688 7.15771 14.1958 6.88672 14.2837 6.58398C14.3765 6.27637 14.4229 5.93213 14.4229 5.55127C14.4229 5.02393 14.3301 4.56006 14.1445 4.15967C13.9639 3.75928 13.7051 3.4248 13.3682 3.15625C13.0264 2.8877 12.6162 2.68506 12.1377 2.54834C11.6592 2.40674 11.1245 2.33594 10.5337 2.33594H6.95947V13H9.01758V9.01562H10.5776ZM9.01758 7.3457V4.00586H10.5337C10.8169 4.00586 11.0684 4.04004 11.2881 4.1084C11.5078 4.17676 11.6934 4.27441 11.8447 4.40137C12.0156 4.54297 12.1426 4.72363 12.2256 4.94336C12.3135 5.1582 12.3574 5.40723 12.3574 5.69043C12.3574 5.9248 12.3232 6.13721 12.2549 6.32764C12.1914 6.51807 12.0962 6.68164 11.9692 6.81836C11.8179 6.98926 11.6201 7.12109 11.376 7.21387C11.1367 7.30176 10.8584 7.3457 10.541 7.3457H9.01758Z" fill="#87E70C"/>
<path d="M8.57764 9.01562L10.5845 13H12.7891V12.9048L10.4966 8.50293C10.7896 8.37109 11.0532 8.21484 11.2876 8.03418C11.5269 7.85352 11.7319 7.64111 11.9028 7.39697C12.0688 7.15771 12.1958 6.88672 12.2837 6.58398C12.3765 6.27637 12.4229 5.93213 12.4229 5.55127C12.4229 5.02393 12.3301 4.56006 12.1445 4.15967C11.9639 3.75928 11.7051 3.4248 11.3682 3.15625C11.0264 2.8877 10.6162 2.68506 10.1377 2.54834C9.65918 2.40674 9.12451 2.33594 8.53369 2.33594H4.95947V13H7.01758V9.01562H8.57764ZM7.01758 7.3457V4.00586H8.53369C8.81689 4.00586 9.06836 4.04004 9.28809 4.1084C9.50781 4.17676 9.69336 4.27441 9.84473 4.40137C10.0156 4.54297 10.1426 4.72363 10.2256 4.94336C10.3135 5.1582 10.3574 5.40723 10.3574 5.69043C10.3574 5.9248 10.3232 6.13721 10.2549 6.32764C10.1914 6.51807 10.0962 6.68164 9.96924 6.81836C9.81787 6.98926 9.62012 7.12109 9.37598 7.21387C9.13672 7.30176 8.8584 7.3457 8.54102 7.3457H7.01758Z" fill="#157C04"/>
</g>
<defs>
<clipPath id="clip0">
<rect width="16" height="16" fill="white"/>
</clipPath>
</defs>
</svg>
