<svg width="5043" height="1527" viewBox="0 0 5043 1527" fill="none" xmlns="http://www.w3.org/2000/svg">
<path d="M1220 0L1978.64 600H461.362L1220 0Z" fill="#87E70C"/>
<path d="M929.5 55L1734.47 660.25H124.529L929.5 55Z" fill="#157C04"/>
<path d="M643.623 1081.06L737.275 1267H840.156V1262.56L733.174 1057.14C746.846 1050.98 759.15 1043.69 770.088 1035.26C781.253 1026.83 790.824 1016.92 798.799 1005.53C806.546 994.36 812.471 981.714 816.572 967.586C820.902 953.23 823.066 937.166 823.066 919.393C823.066 894.783 818.737 873.136 810.078 854.451C801.647 835.766 789.57 820.158 773.848 807.625C757.897 795.092 738.757 785.636 716.426 779.256C694.095 772.648 669.144 769.344 641.572 769.344H474.775V1267H570.82V1081.06H643.623ZM570.82 1003.13V847.273H641.572C654.788 847.273 666.523 848.868 676.777 852.059C687.031 855.249 695.69 859.806 702.754 865.73C710.729 872.339 716.654 880.77 720.527 891.023C724.629 901.049 726.68 912.671 726.68 925.887C726.68 936.824 725.085 946.736 721.895 955.623C718.932 964.51 714.489 972.143 708.564 978.523C701.501 986.499 692.272 992.651 680.879 996.98C669.714 1001.08 656.725 1003.13 641.914 1003.13H570.82ZM1240.74 1111.14H1144.7C1143.79 1126.18 1141.28 1139.05 1137.18 1149.76C1133.08 1160.47 1127.49 1169.25 1120.43 1176.08C1113.37 1182.92 1104.82 1187.93 1094.79 1191.12C1084.77 1194.31 1073.49 1195.91 1060.96 1195.91C1051.61 1195.91 1043.07 1194.88 1035.32 1192.83C1027.8 1190.55 1020.97 1187.13 1014.81 1182.58C1009.12 1178.47 1003.99 1173.35 999.434 1167.2C995.104 1161.04 991.344 1153.98 988.154 1146C983.597 1134.38 980.179 1120.82 977.9 1105.33C975.85 1089.61 974.824 1071.83 974.824 1052.01V984.334C974.824 969.751 975.508 956.193 976.875 943.66C978.242 930.9 980.407 919.279 983.369 908.797C987.243 895.353 992.37 883.618 998.75 873.592C1005.36 863.338 1013.33 855.477 1022.68 850.008C1028.14 846.818 1034.07 844.425 1040.45 842.83C1047.06 841.235 1054.12 840.438 1061.64 840.438C1075.77 840.438 1087.85 842.374 1097.87 846.248C1108.12 849.894 1116.67 855.363 1123.51 862.654C1130.11 870.174 1135.13 879.516 1138.54 890.682C1142.19 901.847 1144.47 914.835 1145.38 929.646H1241.08C1238.81 903.67 1233.34 880.314 1224.68 859.578C1216.02 838.842 1204.17 821.297 1189.13 806.941C1174.09 792.586 1155.86 781.535 1134.44 773.787C1113.25 766.04 1088.98 762.166 1061.64 762.166C1043.18 762.166 1025.87 764.559 1009.69 769.344C993.737 773.901 979.04 780.509 965.596 789.168C950.557 799.422 937.113 811.954 925.264 826.766C913.415 841.577 903.844 858.439 896.553 877.352C890.173 892.846 885.387 909.708 882.197 927.938C879.007 945.939 877.412 964.965 877.412 985.018V1052.01C877.412 1073.43 879.121 1093.71 882.539 1112.85C886.185 1131.99 891.312 1149.54 897.92 1165.49C904.756 1181.44 913.073 1196.02 922.871 1209.24C932.897 1222.45 944.29 1233.73 957.051 1243.07C970.951 1253.1 986.559 1260.85 1003.88 1266.32C1021.42 1271.56 1040.45 1274.18 1060.96 1274.18C1086.93 1274.18 1110.63 1270.42 1132.05 1262.9C1153.47 1255.15 1171.93 1244.21 1187.42 1230.09C1202.92 1215.96 1215.22 1198.87 1224.34 1178.82C1233.68 1158.76 1239.15 1136.21 1240.74 1111.14ZM1336.79 769.344V846.932H1431.46V1189.75H1336.79V1267H1624.58V1189.75H1527.51V846.932H1624.58V769.344H1336.79Z" fill="#87E70C"/>
<path d="M576.623 1089.06L670.275 1275H773.156V1270.56L666.174 1065.14C679.846 1058.98 692.15 1051.69 703.088 1043.26C714.253 1034.83 723.824 1024.92 731.799 1013.53C739.546 1002.36 745.471 989.714 749.572 975.586C753.902 961.23 756.066 945.166 756.066 927.393C756.066 902.783 751.737 881.136 743.078 862.451C734.647 843.766 722.57 828.158 706.848 815.625C690.897 803.092 671.757 793.636 649.426 787.256C627.095 780.648 602.144 777.344 574.572 777.344H407.775V1275H503.82V1089.06H576.623ZM503.82 1011.13V855.273H574.572C587.788 855.273 599.523 856.868 609.777 860.059C620.031 863.249 628.69 867.806 635.754 873.73C643.729 880.339 649.654 888.77 653.527 899.023C657.629 909.049 659.68 920.671 659.68 933.887C659.68 944.824 658.085 954.736 654.895 963.623C651.932 972.51 647.489 980.143 641.564 986.523C634.501 994.499 625.272 1000.65 613.879 1004.98C602.714 1009.08 589.725 1011.13 574.914 1011.13H503.82ZM1173.74 1119.14H1077.7C1076.79 1134.18 1074.28 1147.05 1070.18 1157.76C1066.08 1168.47 1060.49 1177.25 1053.43 1184.08C1046.37 1190.92 1037.82 1195.93 1027.79 1199.12C1017.77 1202.31 1006.49 1203.91 993.957 1203.91C984.615 1203.91 976.07 1202.88 968.322 1200.83C960.803 1198.55 953.967 1195.13 947.814 1190.58C942.118 1186.47 936.991 1181.35 932.434 1175.2C928.104 1169.04 924.344 1161.98 921.154 1154C916.597 1142.38 913.179 1128.82 910.9 1113.33C908.85 1097.61 907.824 1079.83 907.824 1060.01V992.334C907.824 977.751 908.508 964.193 909.875 951.66C911.242 938.9 913.407 927.279 916.369 916.797C920.243 903.353 925.37 891.618 931.75 881.592C938.358 871.338 946.333 863.477 955.676 858.008C961.145 854.818 967.069 852.425 973.449 850.83C980.057 849.235 987.121 848.438 994.641 848.438C1008.77 848.438 1020.85 850.374 1030.87 854.248C1041.12 857.894 1049.67 863.363 1056.51 870.654C1063.11 878.174 1068.13 887.516 1071.54 898.682C1075.19 909.847 1077.47 922.835 1078.38 937.646H1174.08C1171.81 911.67 1166.34 888.314 1157.68 867.578C1149.02 846.842 1137.17 829.297 1122.13 814.941C1107.09 800.586 1088.86 789.535 1067.44 781.787C1046.25 774.04 1021.98 770.166 994.641 770.166C976.184 770.166 958.866 772.559 942.688 777.344C926.737 781.901 912.04 788.509 898.596 797.168C883.557 807.422 870.113 819.954 858.264 834.766C846.415 849.577 836.844 866.439 829.553 885.352C823.173 900.846 818.387 917.708 815.197 935.938C812.007 953.939 810.412 972.965 810.412 993.018V1060.01C810.412 1081.43 812.121 1101.71 815.539 1120.85C819.185 1139.99 824.312 1157.54 830.92 1173.49C837.756 1189.44 846.073 1204.02 855.871 1217.24C865.897 1230.45 877.29 1241.73 890.051 1251.07C903.951 1261.1 919.559 1268.85 936.877 1274.32C954.423 1279.56 973.449 1282.18 993.957 1282.18C1019.93 1282.18 1043.63 1278.42 1065.05 1270.9C1086.47 1263.15 1104.93 1252.21 1120.42 1238.09C1135.92 1223.96 1148.22 1206.87 1157.34 1186.82C1166.68 1166.76 1172.15 1144.21 1173.74 1119.14ZM1269.79 777.344V854.932H1364.46V1197.75H1269.79V1275H1557.58V1197.75H1460.51V854.932H1557.58V777.344H1269.79Z" fill="#157C04"/>
<path d="M2467 1029.6C2440.33 986.4 2427 888.533 2427 736L2427.8 687.2C2427.8 684 2428.6 681.6 2430.2 680C2431.8 678.4 2433.4 677.6 2435 677.6L2437.4 676.8C2481.67 672 2522.73 654.133 2560.6 623.2C2599 591.733 2618.2 555.733 2618.2 515.2C2618.2 499.2 2613.93 485.333 2605.4 473.6C2597.4 461.333 2586.47 452.267 2572.6 446.4C2559.27 440 2545.4 435.467 2531 432.8C2517.13 429.6 2503.27 428 2489.4 428C2464.87 428 2440.6 432 2416.6 440C2392.6 448 2371.53 461.067 2353.4 479.2C2335.27 497.333 2326.2 518.667 2326.2 543.2C2326.2 558.133 2330.47 573.067 2339 588C2341.13 593.333 2342.2 596.8 2342.2 598.4C2342.2 601.6 2340.6 603.2 2337.4 603.2C2332.6 603.2 2326.47 600.8 2319 596C2285.93 576.267 2269.4 552.533 2269.4 524.8C2269.4 488.533 2291.53 460 2335.8 439.2C2380.6 418.4 2433.13 408 2493.4 408C2513.67 408 2533.4 409.333 2552.6 412C2572.33 414.667 2593.4 419.2 2615.8 425.6C2638.2 432 2656.07 442.4 2669.4 456.8C2683.27 470.667 2690.2 487.733 2690.2 508C2690.2 535.2 2678.2 561.867 2654.2 588C2630.73 614.133 2604.6 635.2 2575.8 651.2C2547 667.2 2519.8 678.4 2494.2 684.8C2490.47 687.467 2488.6 690.4 2488.6 693.6C2488.6 712.8 2489.13 734.667 2490.2 759.2C2491.27 783.2 2493.4 817.067 2496.6 860.8C2500.33 904 2507 943.2 2516.6 978.4C2526.73 1013.07 2539.27 1037.33 2554.2 1051.2C2556.87 1053.87 2558.2 1056.27 2558.2 1058.4C2558.2 1062.67 2551.53 1064.8 2538.2 1064.8C2522.73 1064.8 2509.13 1061.87 2497.4 1056C2485.67 1050.13 2477.67 1044.8 2473.4 1040C2469.67 1035.2 2467.53 1031.73 2467 1029.6ZM2285.4 892.8C2274.2 918.4 2261.93 941.6 2248.6 962.4C2235.27 983.2 2223 999.467 2211.8 1011.2C2200.6 1022.93 2190.2 1032.8 2180.6 1040.8C2171 1048.8 2163.27 1054.13 2157.4 1056.8L2149.4 1060.8C2146.2 1062.4 2143 1063.2 2139.8 1063.2C2133.93 1063.2 2131 1059.73 2131 1052.8L2133.4 1043.2C2138.73 1028.27 2156.87 990.667 2187.8 930.4C2219.27 869.6 2248.87 814.667 2276.6 765.6C2302.2 719.733 2326.73 677.067 2350.2 637.6C2374.2 597.6 2391.53 569.333 2402.2 552.8L2419 527.2C2432.33 509.067 2445.93 495.2 2459.8 485.6C2473.67 476 2484.87 471.2 2493.4 471.2C2499.27 471.2 2502.2 473.333 2502.2 477.6C2502.2 480.8 2500.07 486.4 2495.8 494.4C2492.07 500.8 2477.13 527.467 2451 574.4C2425.4 620.8 2394.73 677.6 2359 744.8C2323.8 811.467 2299.27 860.8 2285.4 892.8ZM2838.19 899.2C2860.59 876.8 2890.19 844.533 2926.99 802.4C2928.59 800.8 2929.92 800 2930.99 800C2932.05 800 2932.59 801.067 2932.59 803.2C2932.59 813.333 2928.59 823.2 2920.59 832.8C2881.12 876.533 2846.19 913.067 2815.79 942.4C2751.79 1001.6 2709.65 1031.2 2689.39 1031.2C2681.39 1031.2 2677.39 1026.13 2677.39 1016C2677.39 996.8 2688.32 967.733 2710.19 928.8C2732.05 889.333 2753.65 852.8 2774.99 819.2C2796.85 785.067 2807.79 765.067 2807.79 759.2C2807.79 756 2806.19 754.4 2802.99 754.4C2790.19 754.4 2765.92 774.133 2730.19 813.6C2694.45 853.067 2664.32 888.533 2639.79 920C2612.59 954.133 2588.85 981.333 2568.59 1001.6C2548.85 1021.87 2535.79 1033.33 2529.39 1036L2518.99 1040.8C2514.19 1040.8 2511.79 1038.13 2511.79 1032.8C2511.79 1024.27 2516.59 1009.07 2526.19 987.2C2535.79 965.333 2545.39 945.6 2554.99 928L2569.39 901.6L2694.19 677.6C2792.32 504.267 2869.65 381.067 2926.19 308C2942.19 286.667 2953.39 276 2959.79 276C2962.99 276 2964.59 278.133 2964.59 282.4C2964.59 293.6 2956.05 316.533 2938.99 351.2C2855.25 502.133 2797.12 606.667 2764.59 664.8C2744.85 700 2726.99 731.467 2710.99 759.2C2694.99 786.4 2683.52 805.6 2676.59 816.8C2670.19 828 2664.59 837.867 2659.79 846.4C2654.99 854.4 2651.25 861.333 2648.59 867.2C2648.05 868.8 2647.79 870.4 2647.79 872C2647.79 874.667 2648.32 876 2649.39 876C2650.45 876 2652.59 874.4 2655.79 871.2C2775.25 738.4 2853.65 672 2890.99 672C2898.45 672 2902.19 675.733 2902.19 683.2C2902.19 685.333 2901.12 690.133 2898.99 697.6C2896.85 704.533 2890.72 718.933 2880.59 740.8C2870.45 762.667 2857.12 786.933 2840.59 813.6C2830.45 828.533 2817.65 849.867 2802.19 877.6C2786.72 905.333 2778.99 923.467 2778.99 932C2778.99 936.8 2781.39 939.2 2786.19 939.2C2787.79 939.2 2789.92 938.667 2792.59 937.6C2795.79 936 2799.25 933.6 2802.99 930.4C2806.72 927.2 2809.92 924.267 2812.59 921.6C2815.79 918.933 2820.05 915.2 2825.39 910.4C2831.25 905.067 2835.52 901.333 2838.19 899.2ZM3070.97 748.8C3077.37 735.467 3080.57 723.733 3080.57 713.6C3080.57 705.067 3077.9 700.8 3072.57 700.8C3069.37 700.8 3065.64 701.867 3061.37 704C3057.64 705.6 3054.7 707.467 3052.57 709.6L3048.57 712.8C3032.04 727.2 3011.24 753.6 2986.17 792C2961.64 829.867 2949.37 854.133 2949.37 864.8C2949.37 866.933 2949.9 868 2950.97 868C2954.17 868 2961.1 865.333 2971.77 860C2982.97 854.667 2998.7 842.133 3018.97 822.4C3039.77 802.667 3057.1 778.133 3070.97 748.8ZM3034.97 932C3063.24 905.867 3103.77 862.667 3156.57 802.4C3158.17 800.8 3159.5 800 3160.57 800C3161.64 800 3162.17 801.067 3162.17 803.2C3162.17 813.333 3158.17 823.2 3150.17 832.8C3110.7 876.533 3075.77 913.067 3045.37 942.4C3022.97 964.8 2996.3 986.4 2965.37 1007.2C2934.44 1027.47 2908.84 1037.6 2888.57 1037.6C2864.04 1037.6 2851.77 1020.53 2851.77 986.4C2851.77 929.867 2872.57 870.667 2914.17 808.8C2956.3 746.933 3004.84 705.067 3059.77 683.2C3082.7 673.6 3103.5 668.8 3122.17 668.8C3142.97 668.8 3153.37 677.067 3153.37 693.6C3153.37 724.533 3131.5 760 3087.77 800C3044.04 840 2994.97 870.4 2940.57 891.2C2938.44 891.733 2936.57 893.6 2934.97 896.8C2926.97 918.667 2922.97 938.133 2922.97 955.2C2922.97 974.4 2930.17 984 2944.57 984C2967.5 984 2997.64 966.667 3034.97 932ZM3268.66 886.4C3270.79 882.133 3271.86 879.2 3271.86 877.6L3263.86 883.2C3247.32 902.4 3228.12 922.133 3206.26 942.4C3184.92 962.667 3167.59 978.4 3154.26 989.6L3134.26 1005.6C3112.39 1021.6 3095.86 1029.6 3084.66 1029.6C3073.99 1029.6 3068.66 1021.87 3068.66 1006.4C3068.66 968 3082.79 922.667 3111.06 870.4C3139.32 818.133 3175.86 772.267 3220.66 732.8C3265.99 693.333 3308.92 673.6 3349.46 673.6C3357.46 673.6 3364.12 674.667 3369.46 676.8C3375.32 678.4 3379.32 680 3381.46 681.6C3384.12 683.2 3385.72 684 3386.26 684C3387.32 684 3388.66 683.2 3390.26 681.6C3393.46 677.333 3397.46 672 3402.26 665.6C3407.59 659.2 3416.39 650.667 3428.66 640C3440.92 628.8 3450.79 623.2 3458.26 623.2C3461.99 623.2 3463.86 625.867 3463.86 631.2C3463.86 638.667 3460.12 649.867 3452.66 664.8C3395.59 769.867 3360.92 833.333 3348.66 855.2C3344.39 863.2 3334.52 880.533 3319.06 907.2C3304.12 933.333 3293.46 952 3287.06 963.2C3320.66 936 3348.39 912.533 3370.26 892.8C3393.72 868.267 3421.19 838.133 3452.66 802.4C3454.26 800.8 3455.59 800 3456.66 800C3457.72 800 3458.26 801.067 3458.26 803.2C3458.26 813.333 3454.26 823.2 3446.26 832.8C3422.79 858.4 3402.52 880.267 3385.46 898.4C3363.06 921.867 3323.06 956 3265.46 1000.8L3244.66 1039.2C3141.72 1228.53 3070.79 1351.73 3031.86 1408.8C3028.12 1414.67 3023.32 1421.6 3017.46 1429.6C3011.59 1438.13 3001.99 1449.33 2988.66 1463.2C2975.32 1477.6 2964.66 1484.8 2956.66 1484.8C2943.86 1484.8 2937.46 1466.4 2937.46 1429.6C2937.46 1375.2 2956.92 1316 2995.86 1252C3036.92 1184.27 3100.92 1114.67 3187.86 1043.2L3268.66 886.4ZM3375.06 700C3375.59 699.467 3375.86 698.4 3375.86 696.8C3375.86 693.067 3371.59 691.2 3363.06 691.2C3341.72 691.2 3314.26 707.733 3280.66 740.8C3247.06 773.867 3217.99 810.133 3193.46 849.6C3168.92 889.067 3156.66 918.133 3156.66 936.8C3156.66 944.267 3159.86 948 3166.26 948C3172.12 948 3179.59 944.267 3188.66 936.8C3196.66 929.867 3207.32 920.267 3220.66 908C3234.52 895.2 3257.99 868.267 3291.06 827.2C3324.12 786.133 3352.12 743.733 3375.06 700ZM3015.86 1250.4C3011.59 1256.8 3006.52 1265.07 3000.66 1275.2C2994.79 1285.87 2986.79 1303.73 2976.66 1328.8C2966.52 1354.4 2961.46 1375.73 2961.46 1392.8C2961.46 1401.87 2963.06 1406.4 2966.26 1406.4C2968.92 1406.4 2972.92 1403.73 2978.26 1398.4C2983.59 1393.6 2988.12 1388.53 2991.86 1383.2L2997.46 1375.2C3042.26 1305.87 3098.79 1208 3167.06 1081.6C3099.86 1139.73 3049.46 1196 3015.86 1250.4ZM3487.15 942.4C3424.75 1001.07 3384.75 1030.4 3367.15 1030.4C3358.08 1030.4 3353.55 1024.27 3353.55 1012C3353.55 999.733 3358.35 981.867 3367.95 958.4C3377.55 934.933 3387.15 914.4 3396.75 896.8L3411.15 871.2C3451.68 800.267 3482.35 749.333 3503.15 718.4C3512.22 705.067 3523.68 693.867 3537.55 684.8C3551.95 675.2 3565.28 670.4 3577.55 670.4C3581.82 670.4 3583.95 672.267 3583.95 676C3583.95 678.667 3582.08 683.733 3578.35 691.2C3571.95 702.933 3556.22 730.933 3531.15 775.2C3506.08 819.467 3491.15 846.133 3486.35 855.2C3464.48 893.6 3453.55 919.2 3453.55 932C3453.55 936.8 3455.15 939.2 3458.35 939.2C3463.68 939.2 3480.75 925.867 3509.55 899.2C3531.95 876.8 3561.55 844.533 3598.35 802.4C3599.95 800.8 3601.28 800 3602.35 800C3603.42 800 3603.95 801.067 3603.95 803.2C3603.95 813.333 3599.95 823.2 3591.95 832.8C3552.48 876.533 3517.55 913.067 3487.15 942.4ZM3593.55 624.8C3580.22 624.8 3573.55 616.8 3573.55 600.8C3573.55 585.867 3579.15 570.933 3590.35 556C3601.55 540.533 3613.82 532.8 3627.15 532.8C3643.15 532.8 3651.15 541.867 3651.15 560C3651.15 574.933 3645.02 589.6 3632.75 604C3620.48 617.867 3607.42 624.8 3593.55 624.8ZM3871.66 738.4C3876.46 739.467 3878.86 741.067 3878.86 743.2C3878.86 746.4 3876.73 750.133 3872.46 754.4C3866.6 760.267 3857.8 768 3846.06 777.6C3834.86 787.2 3828.2 793.067 3826.06 795.2L3814.86 810.4C3803.66 841.867 3786.33 874.667 3762.86 908.8C3739.93 942.4 3711.66 972 3678.06 997.6C3645 1023.2 3613.26 1036 3582.86 1036C3545 1036 3526.06 1012.8 3526.06 966.4C3526.06 925.333 3539.4 881.067 3566.06 833.6C3592.73 785.6 3627.13 744.8 3669.26 711.2C3711.93 677.067 3753.8 660 3794.86 660C3824.73 660 3839.66 671.733 3839.66 695.2C3839.66 708 3833.26 725.333 3820.46 747.2C3819.93 747.733 3819.66 748.533 3819.66 749.6C3819.66 750.667 3820.2 751.2 3821.26 751.2C3841 743.2 3857.8 738.933 3871.66 738.4ZM3795.66 757.6C3799.93 738.933 3802.06 724.533 3802.06 714.4C3802.06 692 3794.6 680.8 3779.66 680.8C3758.86 680.8 3733 700 3702.06 738.4C3671.13 776.8 3644.46 820 3622.06 868C3600.2 916 3589.26 953.867 3589.26 981.6C3589.26 1001.87 3596.46 1012 3610.86 1012C3633.26 1012 3659.93 989.6 3690.86 944.8C3722.33 900 3741.26 854.933 3747.66 809.6C3747.13 808.533 3746.86 806.933 3746.86 804.8C3746.86 789.333 3760.73 775.467 3788.46 763.2C3792.73 761.6 3795.13 759.733 3795.66 757.6ZM4068.19 942.4C4005.79 1001.07 3964.72 1030.4 3944.99 1030.4C3935.92 1030.4 3931.39 1025.6 3931.39 1016C3931.39 1010.13 3932.72 1002.93 3935.39 994.4C3938.05 985.333 3941.25 976.533 3944.99 968C3949.25 958.933 3953.25 950.667 3956.99 943.2C3960.72 935.733 3964.45 928.8 3968.19 922.4C3971.92 916 3973.79 912.533 3973.79 912C3981.79 897.6 3993.79 877.6 4009.79 852C4025.79 825.867 4038.59 804.533 4048.19 788C4057.79 770.933 4062.59 760.533 4062.59 756.8C4062.59 754.133 4061.25 752.8 4058.59 752.8L4047.39 756.8C4022.85 774.4 3993.52 801.867 3959.39 839.2C3925.25 876 3897.25 908.533 3875.39 936.8L3842.59 978.4C3835.65 988.533 3829.52 996.8 3824.19 1003.2C3818.85 1009.6 3811.12 1015.73 3800.99 1021.6C3791.39 1028 3781.52 1031.2 3771.39 1031.2C3763.92 1031.2 3760.19 1029.07 3760.19 1024.8C3760.19 1020.53 3765.25 1008.27 3775.39 988C3785.52 967.2 3795.65 947.467 3805.79 928.8L3820.99 901.6L3899.39 764C3907.39 750.667 3913.79 740.533 3918.59 733.6C3923.92 726.133 3931.12 717.067 3940.19 706.4C3949.25 695.2 3958.85 686.933 3968.99 681.6C3979.65 676.267 3990.85 673.067 4002.59 672C4006.85 672 4008.99 673.867 4008.99 677.6C4008.99 680.8 4008.19 683.467 4006.59 685.6C3994.32 704.8 3975.39 736.533 3949.79 780.8C3924.72 825.067 3908.72 853.867 3901.79 867.2C3900.19 870.4 3899.39 872.8 3899.39 874.4C3899.39 875.467 3899.92 876 3900.99 876C3902.05 876 3904.72 874.4 3908.99 871.2C3919.12 859.467 3932.19 844.8 3948.19 827.2C3964.72 809.6 3992.45 783.2 4031.39 748C4070.32 712.267 4102.32 688.267 4127.39 676C4133.25 673.333 4138.85 672 4144.19 672C4151.65 672 4155.39 676.267 4155.39 684.8C4151.12 709.867 4130.59 752.8 4093.79 813.6C4053.25 880.267 4032.99 919.733 4032.99 932C4032.99 936.267 4034.85 938.4 4038.59 938.4C4041.25 938.4 4044.19 937.6 4047.39 936C4051.12 933.867 4055.12 931.2 4059.39 928C4063.65 924.267 4067.12 921.067 4069.79 918.4C4072.99 915.733 4076.99 912.267 4081.79 908C4086.59 903.2 4089.52 900.267 4090.59 899.2C4112.99 876.8 4142.59 844.533 4179.39 802.4C4180.99 800.8 4182.32 800 4183.39 800C4184.45 800 4184.99 801.067 4184.99 803.2C4184.99 813.333 4180.99 823.2 4172.99 832.8C4133.52 876.533 4098.59 913.067 4068.19 942.4ZM4336.11 969.6C4291.85 1010.13 4261.45 1030.4 4244.91 1030.4C4237.45 1030.4 4233.71 1026.13 4233.71 1017.6C4233.71 1006.93 4238.25 990.667 4247.31 968.8C4256.91 946.933 4266.51 927.733 4276.11 911.2L4290.51 886.4C4292.65 882.667 4293.71 880.267 4293.71 879.2C4293.71 878.133 4293.18 877.6 4292.11 877.6C4289.98 877.6 4285.98 880.533 4280.11 886.4C4264.11 904 4245.71 922.933 4224.91 943.2C4204.65 962.933 4188.11 978.4 4175.31 989.6L4156.91 1005.6C4136.11 1021.6 4120.11 1029.6 4108.91 1029.6C4097.18 1029.6 4091.31 1020.53 4091.31 1002.4C4091.31 993.333 4093.98 979.467 4099.31 960.8C4104.11 942.133 4107.85 929.6 4110.51 923.2C4122.78 893.333 4137.98 864.267 4156.11 836C4174.78 807.733 4196.65 780.8 4221.71 755.2C4246.78 729.067 4275.85 708 4308.91 692C4342.51 676 4377.18 668 4412.91 668C4442.78 668 4457.71 672.533 4457.71 681.6C4457.71 686.933 4451.05 689.6 4437.71 689.6C4388.65 689.6 4342.51 710.667 4299.31 752.8C4256.65 794.4 4221.98 842.4 4195.31 896.8C4187.85 911.733 4184.11 924.267 4184.11 934.4C4184.11 940.267 4185.98 943.2 4189.71 943.2C4196.11 943.2 4204.38 938.667 4214.51 929.6C4220.91 923.733 4229.45 916 4240.11 906.4C4251.31 896.8 4269.18 878.4 4293.71 851.2C4318.25 824 4337.71 798.667 4352.11 775.2C4354.25 770.933 4357.45 765.867 4361.71 760C4366.51 754.133 4375.31 746.4 4388.11 736.8C4400.91 726.667 4413.71 721.6 4426.51 721.6C4433.45 721.6 4436.91 723.467 4436.91 727.2C4436.91 728.267 4436.11 730.133 4434.51 732.8C4432.38 737.067 4426.25 747.733 4416.11 764.8C4406.51 781.867 4397.45 798.133 4388.91 813.6C4380.38 828.533 4371.31 845.067 4361.71 863.2C4352.11 880.8 4344.38 896 4338.51 908.8C4333.18 921.6 4330.51 930.133 4330.51 934.4C4330.51 937.6 4331.85 939.2 4334.51 939.2C4342.51 939.2 4361.98 923.733 4392.91 892.8C4416.38 868.267 4443.85 838.133 4475.31 802.4C4476.91 800.8 4478.25 800 4479.31 800C4480.38 800 4480.91 801.067 4480.91 803.2C4480.91 813.333 4476.91 823.2 4468.91 832.8C4416.65 890.933 4372.38 936.533 4336.11 969.6ZM4632.21 630.4C4670.07 603.733 4703.94 573.6 4733.81 540C4764.21 505.867 4787.14 474.667 4802.61 446.4C4818.61 417.6 4830.61 392.8 4838.61 372C4846.61 351.2 4850.61 336.267 4850.61 327.2C4850.61 321.867 4848.74 319.2 4845.01 319.2C4837.54 319.2 4828.47 324.533 4817.81 335.2C4797.54 355.467 4774.61 384.8 4749.01 423.2C4723.41 461.6 4702.61 494.667 4686.61 522.4C4671.14 549.6 4650.87 586.133 4625.81 632C4627.94 632 4630.07 631.467 4632.21 630.4ZM4546.61 899.2C4569.01 876.8 4598.61 844.533 4635.41 802.4C4637.01 800.8 4638.34 800 4639.41 800C4640.47 800 4641.01 801.067 4641.01 803.2C4641.01 813.333 4637.01 823.2 4629.01 832.8C4589.54 876.533 4554.61 913.067 4524.21 942.4C4457.54 1005.33 4415.14 1036.8 4397.01 1036.8C4389.01 1036.8 4385.01 1031.2 4385.01 1020C4385.01 1014.13 4385.81 1007.73 4387.41 1000.8C4388.47 993.867 4390.61 986.4 4393.81 978.4C4397.01 969.867 4399.67 962.933 4401.81 957.6C4404.47 951.733 4407.94 943.733 4412.21 933.6C4417.01 922.933 4420.21 915.733 4421.81 912C4436.74 878.4 4482.61 789.867 4559.41 646.4C4664.47 454.933 4761.01 337.333 4849.01 293.6C4861.81 287.2 4874.61 284 4887.41 284C4902.34 284 4909.81 290.933 4909.81 304.8C4909.81 336.8 4898.87 372 4877.01 410.4C4855.14 448.267 4828.47 483.2 4797.01 515.2C4765.54 547.2 4734.61 575.2 4704.21 599.2C4674.34 623.2 4648.47 641.333 4626.61 653.6C4623.41 654.667 4620.47 657.067 4617.81 660.8C4594.34 698.667 4571.41 739.467 4549.01 783.2C4526.61 826.4 4509.81 860.533 4498.61 885.6L4482.61 922.4C4479.94 930.4 4478.61 935.733 4478.61 938.4C4478.61 943.2 4480.47 945.6 4484.21 945.6C4494.87 945.6 4515.67 930.133 4546.61 899.2Z" fill="#87E70C"/>
<path d="M2399 1043.6C2372.33 1000.4 2359 902.533 2359 750L2359.8 701.2C2359.8 698 2360.6 695.6 2362.2 694C2363.8 692.4 2365.4 691.6 2367 691.6L2369.4 690.8C2413.67 686 2454.73 668.133 2492.6 637.2C2531 605.733 2550.2 569.733 2550.2 529.2C2550.2 513.2 2545.93 499.333 2537.4 487.6C2529.4 475.333 2518.47 466.267 2504.6 460.4C2491.27 454 2477.4 449.467 2463 446.8C2449.13 443.6 2435.27 442 2421.4 442C2396.87 442 2372.6 446 2348.6 454C2324.6 462 2303.53 475.067 2285.4 493.2C2267.27 511.333 2258.2 532.667 2258.2 557.2C2258.2 572.133 2262.47 587.067 2271 602C2273.13 607.333 2274.2 610.8 2274.2 612.4C2274.2 615.6 2272.6 617.2 2269.4 617.2C2264.6 617.2 2258.47 614.8 2251 610C2217.93 590.267 2201.4 566.533 2201.4 538.8C2201.4 502.533 2223.53 474 2267.8 453.2C2312.6 432.4 2365.13 422 2425.4 422C2445.67 422 2465.4 423.333 2484.6 426C2504.33 428.667 2525.4 433.2 2547.8 439.6C2570.2 446 2588.07 456.4 2601.4 470.8C2615.27 484.667 2622.2 501.733 2622.2 522C2622.2 549.2 2610.2 575.867 2586.2 602C2562.73 628.133 2536.6 649.2 2507.8 665.2C2479 681.2 2451.8 692.4 2426.2 698.8C2422.47 701.467 2420.6 704.4 2420.6 707.6C2420.6 726.8 2421.13 748.667 2422.2 773.2C2423.27 797.2 2425.4 831.067 2428.6 874.8C2432.33 918 2439 957.2 2448.6 992.4C2458.73 1027.07 2471.27 1051.33 2486.2 1065.2C2488.87 1067.87 2490.2 1070.27 2490.2 1072.4C2490.2 1076.67 2483.53 1078.8 2470.2 1078.8C2454.73 1078.8 2441.13 1075.87 2429.4 1070C2417.67 1064.13 2409.67 1058.8 2405.4 1054C2401.67 1049.2 2399.53 1045.73 2399 1043.6ZM2217.4 906.8C2206.2 932.4 2193.93 955.6 2180.6 976.4C2167.27 997.2 2155 1013.47 2143.8 1025.2C2132.6 1036.93 2122.2 1046.8 2112.6 1054.8C2103 1062.8 2095.27 1068.13 2089.4 1070.8L2081.4 1074.8C2078.2 1076.4 2075 1077.2 2071.8 1077.2C2065.93 1077.2 2063 1073.73 2063 1066.8L2065.4 1057.2C2070.73 1042.27 2088.87 1004.67 2119.8 944.4C2151.27 883.6 2180.87 828.667 2208.6 779.6C2234.2 733.733 2258.73 691.067 2282.2 651.6C2306.2 611.6 2323.53 583.333 2334.2 566.8L2351 541.2C2364.33 523.067 2377.93 509.2 2391.8 499.6C2405.67 490 2416.87 485.2 2425.4 485.2C2431.27 485.2 2434.2 487.333 2434.2 491.6C2434.2 494.8 2432.07 500.4 2427.8 508.4C2424.07 514.8 2409.13 541.467 2383 588.4C2357.4 634.8 2326.73 691.6 2291 758.8C2255.8 825.467 2231.27 874.8 2217.4 906.8ZM2770.19 913.2C2792.59 890.8 2822.19 858.533 2858.99 816.4C2860.59 814.8 2861.92 814 2862.99 814C2864.05 814 2864.59 815.067 2864.59 817.2C2864.59 827.333 2860.59 837.2 2852.59 846.8C2813.12 890.533 2778.19 927.067 2747.79 956.4C2683.79 1015.6 2641.65 1045.2 2621.39 1045.2C2613.39 1045.2 2609.39 1040.13 2609.39 1030C2609.39 1010.8 2620.32 981.733 2642.19 942.8C2664.05 903.333 2685.65 866.8 2706.99 833.2C2728.85 799.067 2739.79 779.067 2739.79 773.2C2739.79 770 2738.19 768.4 2734.99 768.4C2722.19 768.4 2697.92 788.133 2662.19 827.6C2626.45 867.067 2596.32 902.533 2571.79 934C2544.59 968.133 2520.85 995.333 2500.59 1015.6C2480.85 1035.87 2467.79 1047.33 2461.39 1050L2450.99 1054.8C2446.19 1054.8 2443.79 1052.13 2443.79 1046.8C2443.79 1038.27 2448.59 1023.07 2458.19 1001.2C2467.79 979.333 2477.39 959.6 2486.99 942L2501.39 915.6L2626.19 691.6C2724.32 518.267 2801.65 395.067 2858.19 322C2874.19 300.667 2885.39 290 2891.79 290C2894.99 290 2896.59 292.133 2896.59 296.4C2896.59 307.6 2888.05 330.533 2870.99 365.2C2787.25 516.133 2729.12 620.667 2696.59 678.8C2676.85 714 2658.99 745.467 2642.99 773.2C2626.99 800.4 2615.52 819.6 2608.59 830.8C2602.19 842 2596.59 851.867 2591.79 860.4C2586.99 868.4 2583.25 875.333 2580.59 881.2C2580.05 882.8 2579.79 884.4 2579.79 886C2579.79 888.667 2580.32 890 2581.39 890C2582.45 890 2584.59 888.4 2587.79 885.2C2707.25 752.4 2785.65 686 2822.99 686C2830.45 686 2834.19 689.733 2834.19 697.2C2834.19 699.333 2833.12 704.133 2830.99 711.6C2828.85 718.533 2822.72 732.933 2812.59 754.8C2802.45 776.667 2789.12 800.933 2772.59 827.6C2762.45 842.533 2749.65 863.867 2734.19 891.6C2718.72 919.333 2710.99 937.467 2710.99 946C2710.99 950.8 2713.39 953.2 2718.19 953.2C2719.79 953.2 2721.92 952.667 2724.59 951.6C2727.79 950 2731.25 947.6 2734.99 944.4C2738.72 941.2 2741.92 938.267 2744.59 935.6C2747.79 932.933 2752.05 929.2 2757.39 924.4C2763.25 919.067 2767.52 915.333 2770.19 913.2ZM3002.97 762.8C3009.37 749.467 3012.57 737.733 3012.57 727.6C3012.57 719.067 3009.9 714.8 3004.57 714.8C3001.37 714.8 2997.64 715.867 2993.37 718C2989.64 719.6 2986.7 721.467 2984.57 723.6L2980.57 726.8C2964.04 741.2 2943.24 767.6 2918.17 806C2893.64 843.867 2881.37 868.133 2881.37 878.8C2881.37 880.933 2881.9 882 2882.97 882C2886.17 882 2893.1 879.333 2903.77 874C2914.97 868.667 2930.7 856.133 2950.97 836.4C2971.77 816.667 2989.1 792.133 3002.97 762.8ZM2966.97 946C2995.24 919.867 3035.77 876.667 3088.57 816.4C3090.17 814.8 3091.5 814 3092.57 814C3093.64 814 3094.17 815.067 3094.17 817.2C3094.17 827.333 3090.17 837.2 3082.17 846.8C3042.7 890.533 3007.77 927.067 2977.37 956.4C2954.97 978.8 2928.3 1000.4 2897.37 1021.2C2866.44 1041.47 2840.84 1051.6 2820.57 1051.6C2796.04 1051.6 2783.77 1034.53 2783.77 1000.4C2783.77 943.867 2804.57 884.667 2846.17 822.8C2888.3 760.933 2936.84 719.067 2991.77 697.2C3014.7 687.6 3035.5 682.8 3054.17 682.8C3074.97 682.8 3085.37 691.067 3085.37 707.6C3085.37 738.533 3063.5 774 3019.77 814C2976.04 854 2926.97 884.4 2872.57 905.2C2870.44 905.733 2868.57 907.6 2866.97 910.8C2858.97 932.667 2854.97 952.133 2854.97 969.2C2854.97 988.4 2862.17 998 2876.57 998C2899.5 998 2929.64 980.667 2966.97 946ZM3200.66 900.4C3202.79 896.133 3203.86 893.2 3203.86 891.6L3195.86 897.2C3179.32 916.4 3160.12 936.133 3138.26 956.4C3116.92 976.667 3099.59 992.4 3086.26 1003.6L3066.26 1019.6C3044.39 1035.6 3027.86 1043.6 3016.66 1043.6C3005.99 1043.6 3000.66 1035.87 3000.66 1020.4C3000.66 982 3014.79 936.667 3043.06 884.4C3071.32 832.133 3107.86 786.267 3152.66 746.8C3197.99 707.333 3240.92 687.6 3281.46 687.6C3289.46 687.6 3296.12 688.667 3301.46 690.8C3307.32 692.4 3311.32 694 3313.46 695.6C3316.12 697.2 3317.72 698 3318.26 698C3319.32 698 3320.66 697.2 3322.26 695.6C3325.46 691.333 3329.46 686 3334.26 679.6C3339.59 673.2 3348.39 664.667 3360.66 654C3372.92 642.8 3382.79 637.2 3390.26 637.2C3393.99 637.2 3395.86 639.867 3395.86 645.2C3395.86 652.667 3392.12 663.867 3384.66 678.8C3327.59 783.867 3292.92 847.333 3280.66 869.2C3276.39 877.2 3266.52 894.533 3251.06 921.2C3236.12 947.333 3225.46 966 3219.06 977.2C3252.66 950 3280.39 926.533 3302.26 906.8C3325.72 882.267 3353.19 852.133 3384.66 816.4C3386.26 814.8 3387.59 814 3388.66 814C3389.72 814 3390.26 815.067 3390.26 817.2C3390.26 827.333 3386.26 837.2 3378.26 846.8C3354.79 872.4 3334.52 894.267 3317.46 912.4C3295.06 935.867 3255.06 970 3197.46 1014.8L3176.66 1053.2C3073.72 1242.53 3002.79 1365.73 2963.86 1422.8C2960.12 1428.67 2955.32 1435.6 2949.46 1443.6C2943.59 1452.13 2933.99 1463.33 2920.66 1477.2C2907.32 1491.6 2896.66 1498.8 2888.66 1498.8C2875.86 1498.8 2869.46 1480.4 2869.46 1443.6C2869.46 1389.2 2888.92 1330 2927.86 1266C2968.92 1198.27 3032.92 1128.67 3119.86 1057.2L3200.66 900.4ZM3307.06 714C3307.59 713.467 3307.86 712.4 3307.86 710.8C3307.86 707.067 3303.59 705.2 3295.06 705.2C3273.72 705.2 3246.26 721.733 3212.66 754.8C3179.06 787.867 3149.99 824.133 3125.46 863.6C3100.92 903.067 3088.66 932.133 3088.66 950.8C3088.66 958.267 3091.86 962 3098.26 962C3104.12 962 3111.59 958.267 3120.66 950.8C3128.66 943.867 3139.32 934.267 3152.66 922C3166.52 909.2 3189.99 882.267 3223.06 841.2C3256.12 800.133 3284.12 757.733 3307.06 714ZM2947.86 1264.4C2943.59 1270.8 2938.52 1279.07 2932.66 1289.2C2926.79 1299.87 2918.79 1317.73 2908.66 1342.8C2898.52 1368.4 2893.46 1389.73 2893.46 1406.8C2893.46 1415.87 2895.06 1420.4 2898.26 1420.4C2900.92 1420.4 2904.92 1417.73 2910.26 1412.4C2915.59 1407.6 2920.12 1402.53 2923.86 1397.2L2929.46 1389.2C2974.26 1319.87 3030.79 1222 3099.06 1095.6C3031.86 1153.73 2981.46 1210 2947.86 1264.4ZM3419.15 956.4C3356.75 1015.07 3316.75 1044.4 3299.15 1044.4C3290.08 1044.4 3285.55 1038.27 3285.55 1026C3285.55 1013.73 3290.35 995.867 3299.95 972.4C3309.55 948.933 3319.15 928.4 3328.75 910.8L3343.15 885.2C3383.68 814.267 3414.35 763.333 3435.15 732.4C3444.22 719.067 3455.68 707.867 3469.55 698.8C3483.95 689.2 3497.28 684.4 3509.55 684.4C3513.82 684.4 3515.95 686.267 3515.95 690C3515.95 692.667 3514.08 697.733 3510.35 705.2C3503.95 716.933 3488.22 744.933 3463.15 789.2C3438.08 833.467 3423.15 860.133 3418.35 869.2C3396.48 907.6 3385.55 933.2 3385.55 946C3385.55 950.8 3387.15 953.2 3390.35 953.2C3395.68 953.2 3412.75 939.867 3441.55 913.2C3463.95 890.8 3493.55 858.533 3530.35 816.4C3531.95 814.8 3533.28 814 3534.35 814C3535.42 814 3535.95 815.067 3535.95 817.2C3535.95 827.333 3531.95 837.2 3523.95 846.8C3484.48 890.533 3449.55 927.067 3419.15 956.4ZM3525.55 638.8C3512.22 638.8 3505.55 630.8 3505.55 614.8C3505.55 599.867 3511.15 584.933 3522.35 570C3533.55 554.533 3545.82 546.8 3559.15 546.8C3575.15 546.8 3583.15 555.867 3583.15 574C3583.15 588.933 3577.02 603.6 3564.75 618C3552.48 631.867 3539.42 638.8 3525.55 638.8ZM3803.66 752.4C3808.46 753.467 3810.86 755.067 3810.86 757.2C3810.86 760.4 3808.73 764.133 3804.46 768.4C3798.6 774.267 3789.8 782 3778.06 791.6C3766.86 801.2 3760.2 807.067 3758.06 809.2L3746.86 824.4C3735.66 855.867 3718.33 888.667 3694.86 922.8C3671.93 956.4 3643.66 986 3610.06 1011.6C3577 1037.2 3545.26 1050 3514.86 1050C3477 1050 3458.06 1026.8 3458.06 980.4C3458.06 939.333 3471.4 895.067 3498.06 847.6C3524.73 799.6 3559.13 758.8 3601.26 725.2C3643.93 691.067 3685.8 674 3726.86 674C3756.73 674 3771.66 685.733 3771.66 709.2C3771.66 722 3765.26 739.333 3752.46 761.2C3751.93 761.733 3751.66 762.533 3751.66 763.6C3751.66 764.667 3752.2 765.2 3753.26 765.2C3773 757.2 3789.8 752.933 3803.66 752.4ZM3727.66 771.6C3731.93 752.933 3734.06 738.533 3734.06 728.4C3734.06 706 3726.6 694.8 3711.66 694.8C3690.86 694.8 3665 714 3634.06 752.4C3603.13 790.8 3576.46 834 3554.06 882C3532.2 930 3521.26 967.867 3521.26 995.6C3521.26 1015.87 3528.46 1026 3542.86 1026C3565.26 1026 3591.93 1003.6 3622.86 958.8C3654.33 914 3673.26 868.933 3679.66 823.6C3679.13 822.533 3678.86 820.933 3678.86 818.8C3678.86 803.333 3692.73 789.467 3720.46 777.2C3724.73 775.6 3727.13 773.733 3727.66 771.6ZM4000.19 956.4C3937.79 1015.07 3896.72 1044.4 3876.99 1044.4C3867.92 1044.4 3863.39 1039.6 3863.39 1030C3863.39 1024.13 3864.72 1016.93 3867.39 1008.4C3870.05 999.333 3873.25 990.533 3876.99 982C3881.25 972.933 3885.25 964.667 3888.99 957.2C3892.72 949.733 3896.45 942.8 3900.19 936.4C3903.92 930 3905.79 926.533 3905.79 926C3913.79 911.6 3925.79 891.6 3941.79 866C3957.79 839.867 3970.59 818.533 3980.19 802C3989.79 784.933 3994.59 774.533 3994.59 770.8C3994.59 768.133 3993.25 766.8 3990.59 766.8L3979.39 770.8C3954.85 788.4 3925.52 815.867 3891.39 853.2C3857.25 890 3829.25 922.533 3807.39 950.8L3774.59 992.4C3767.65 1002.53 3761.52 1010.8 3756.19 1017.2C3750.85 1023.6 3743.12 1029.73 3732.99 1035.6C3723.39 1042 3713.52 1045.2 3703.39 1045.2C3695.92 1045.2 3692.19 1043.07 3692.19 1038.8C3692.19 1034.53 3697.25 1022.27 3707.39 1002C3717.52 981.2 3727.65 961.467 3737.79 942.8L3752.99 915.6L3831.39 778C3839.39 764.667 3845.79 754.533 3850.59 747.6C3855.92 740.133 3863.12 731.067 3872.19 720.4C3881.25 709.2 3890.85 700.933 3900.99 695.6C3911.65 690.267 3922.85 687.067 3934.59 686C3938.85 686 3940.99 687.867 3940.99 691.6C3940.99 694.8 3940.19 697.467 3938.59 699.6C3926.32 718.8 3907.39 750.533 3881.79 794.8C3856.72 839.067 3840.72 867.867 3833.79 881.2C3832.19 884.4 3831.39 886.8 3831.39 888.4C3831.39 889.467 3831.92 890 3832.99 890C3834.05 890 3836.72 888.4 3840.99 885.2C3851.12 873.467 3864.19 858.8 3880.19 841.2C3896.72 823.6 3924.45 797.2 3963.39 762C4002.32 726.267 4034.32 702.267 4059.39 690C4065.25 687.333 4070.85 686 4076.19 686C4083.65 686 4087.39 690.267 4087.39 698.8C4083.12 723.867 4062.59 766.8 4025.79 827.6C3985.25 894.267 3964.99 933.733 3964.99 946C3964.99 950.267 3966.85 952.4 3970.59 952.4C3973.25 952.4 3976.19 951.6 3979.39 950C3983.12 947.867 3987.12 945.2 3991.39 942C3995.65 938.267 3999.12 935.067 4001.79 932.4C4004.99 929.733 4008.99 926.267 4013.79 922C4018.59 917.2 4021.52 914.267 4022.59 913.2C4044.99 890.8 4074.59 858.533 4111.39 816.4C4112.99 814.8 4114.32 814 4115.39 814C4116.45 814 4116.99 815.067 4116.99 817.2C4116.99 827.333 4112.99 837.2 4104.99 846.8C4065.52 890.533 4030.59 927.067 4000.19 956.4ZM4268.11 983.6C4223.85 1024.13 4193.45 1044.4 4176.91 1044.4C4169.45 1044.4 4165.71 1040.13 4165.71 1031.6C4165.71 1020.93 4170.25 1004.67 4179.31 982.8C4188.91 960.933 4198.51 941.733 4208.11 925.2L4222.51 900.4C4224.65 896.667 4225.71 894.267 4225.71 893.2C4225.71 892.133 4225.18 891.6 4224.11 891.6C4221.98 891.6 4217.98 894.533 4212.11 900.4C4196.11 918 4177.71 936.933 4156.91 957.2C4136.65 976.933 4120.11 992.4 4107.31 1003.6L4088.91 1019.6C4068.11 1035.6 4052.11 1043.6 4040.91 1043.6C4029.18 1043.6 4023.31 1034.53 4023.31 1016.4C4023.31 1007.33 4025.98 993.467 4031.31 974.8C4036.11 956.133 4039.85 943.6 4042.51 937.2C4054.78 907.333 4069.98 878.267 4088.11 850C4106.78 821.733 4128.65 794.8 4153.71 769.2C4178.78 743.067 4207.85 722 4240.91 706C4274.51 690 4309.18 682 4344.91 682C4374.78 682 4389.71 686.533 4389.71 695.6C4389.71 700.933 4383.05 703.6 4369.71 703.6C4320.65 703.6 4274.51 724.667 4231.31 766.8C4188.65 808.4 4153.98 856.4 4127.31 910.8C4119.85 925.733 4116.11 938.267 4116.11 948.4C4116.11 954.267 4117.98 957.2 4121.71 957.2C4128.11 957.2 4136.38 952.667 4146.51 943.6C4152.91 937.733 4161.45 930 4172.11 920.4C4183.31 910.8 4201.18 892.4 4225.71 865.2C4250.25 838 4269.71 812.667 4284.11 789.2C4286.25 784.933 4289.45 779.867 4293.71 774C4298.51 768.133 4307.31 760.4 4320.11 750.8C4332.91 740.667 4345.71 735.6 4358.51 735.6C4365.45 735.6 4368.91 737.467 4368.91 741.2C4368.91 742.267 4368.11 744.133 4366.51 746.8C4364.38 751.067 4358.25 761.733 4348.11 778.8C4338.51 795.867 4329.45 812.133 4320.91 827.6C4312.38 842.533 4303.31 859.067 4293.71 877.2C4284.11 894.8 4276.38 910 4270.51 922.8C4265.18 935.6 4262.51 944.133 4262.51 948.4C4262.51 951.6 4263.85 953.2 4266.51 953.2C4274.51 953.2 4293.98 937.733 4324.91 906.8C4348.38 882.267 4375.85 852.133 4407.31 816.4C4408.91 814.8 4410.25 814 4411.31 814C4412.38 814 4412.91 815.067 4412.91 817.2C4412.91 827.333 4408.91 837.2 4400.91 846.8C4348.65 904.933 4304.38 950.533 4268.11 983.6ZM4564.21 644.4C4602.07 617.733 4635.94 587.6 4665.81 554C4696.21 519.867 4719.14 488.667 4734.61 460.4C4750.61 431.6 4762.61 406.8 4770.61 386C4778.61 365.2 4782.61 350.267 4782.61 341.2C4782.61 335.867 4780.74 333.2 4777.01 333.2C4769.54 333.2 4760.47 338.533 4749.81 349.2C4729.54 369.467 4706.61 398.8 4681.01 437.2C4655.41 475.6 4634.61 508.667 4618.61 536.4C4603.14 563.6 4582.87 600.133 4557.81 646C4559.94 646 4562.07 645.467 4564.21 644.4ZM4478.61 913.2C4501.01 890.8 4530.61 858.533 4567.41 816.4C4569.01 814.8 4570.34 814 4571.41 814C4572.47 814 4573.01 815.067 4573.01 817.2C4573.01 827.333 4569.01 837.2 4561.01 846.8C4521.54 890.533 4486.61 927.067 4456.21 956.4C4389.54 1019.33 4347.14 1050.8 4329.01 1050.8C4321.01 1050.8 4317.01 1045.2 4317.01 1034C4317.01 1028.13 4317.81 1021.73 4319.41 1014.8C4320.47 1007.87 4322.61 1000.4 4325.81 992.4C4329.01 983.867 4331.67 976.933 4333.81 971.6C4336.47 965.733 4339.94 957.733 4344.21 947.6C4349.01 936.933 4352.21 929.733 4353.81 926C4368.74 892.4 4414.61 803.867 4491.41 660.4C4596.47 468.933 4693.01 351.333 4781.01 307.6C4793.81 301.2 4806.61 298 4819.41 298C4834.34 298 4841.81 304.933 4841.81 318.8C4841.81 350.8 4830.87 386 4809.01 424.4C4787.14 462.267 4760.47 497.2 4729.01 529.2C4697.54 561.2 4666.61 589.2 4636.21 613.2C4606.34 637.2 4580.47 655.333 4558.61 667.6C4555.41 668.667 4552.47 671.067 4549.81 674.8C4526.34 712.667 4503.41 753.467 4481.01 797.2C4458.61 840.4 4441.81 874.533 4430.61 899.6L4414.61 936.4C4411.94 944.4 4410.61 949.733 4410.61 952.4C4410.61 957.2 4412.47 959.6 4416.21 959.6C4426.87 959.6 4447.67 944.133 4478.61 913.2Z" fill="#157C04"/>
</svg>
